<?xml version="1.0" encoding="utf-8"?>
<svg viewBox="858.5740966796875 159.53802490234375 171.300048828125 159.20001220703125" width="171.300048828125" height="159.20001220703125" xmlns="http://www.w3.org/2000/svg"><g transform="matrix(1, 0, 0, 1, -6.02582573890686, -14.461975574493408)"><g transform="matrix(1, 0, 0, 1, 0, 1.4210854715202004e-14)">
			<path d="M956,331.7c75.3,1.5,79.9-56.3,76.1-83c-3.4-23.5-22.8-47-59.2-40.1c7.7-10.1,20.5-17.4,20.5-17.4c-21.6-5.1-32,12-32,12&#10;&#9;&#9;&#9;&#9;c-0.2-10.8,10.1-19.3,10.1-19.3c-18.4,0.6-19.7,17-19.7,17c-5-26.9-27.1-20.4-27.1-20.4c11.4,3.6,14.8,15.4,14.8,15.4&#10;&#9;&#9;&#9;&#9;c-19.3-14.7-39.1,10.8-39.1,10.8s9.1-6.1,28.1-2.9c7.7,1.3,11.1,5.1,12.4,9.1c-12.3-3.5-24.3-10.4-45.6,13&#10;&#9;&#9;&#9;&#9;C864.6,259.4,876.7,330.1,956,331.7z" style="fill: rgb(204, 204, 204); opacity: 1;"/>
		</g></g></svg>