<?xml version="1.0" encoding="UTF-8" standalone="no"?>
<svg
   xmlns:dc="http://purl.org/dc/elements/1.1/"
   xmlns:cc="http://creativecommons.org/ns#"
   xmlns:rdf="http://www.w3.org/1999/02/22-rdf-syntax-ns#"
   xmlns:svg="http://www.w3.org/2000/svg"
   xmlns="http://www.w3.org/2000/svg"
   xmlns:sodipodi="http://sodipodi.sourceforge.net/DTD/sodipodi-0.dtd"
   xmlns:inkscape="http://www.inkscape.org/namespaces/inkscape"
   version="1.1"
   id="Layer_1"
   x="0px"
   y="0px"
   width="481.79883"
   height="419.83203"
   viewBox="0 0 481.79882 419.83203"
   enable-background="new 0 0 1000 871.385"
   xml:space="preserve"
   sodipodi:docname="Rotten_Tomatoes_Certified_Fresh_2001.svg"
   inkscape:version="1.0.2-2 (e86c870879, 2021-01-15)"><metadata
   id="metadata25971"><rdf:RDF><cc:Work
       rdf:about=""><dc:format>image/svg+xml</dc:format><dc:type
         rdf:resource="http://purl.org/dc/dcmitype/StillImage" /></cc:Work></rdf:RDF></metadata><defs
   id="defs25969">
	
	
	
	
	
	
	
	
	
	
	
	
	
	
	
	
	
	
	
	
	
	
	
	
	
	
	
	
	
	
	
	
	
	
	
	
	
	
	
	
	
	
	
	
	
	
	
	
	
	
	
	
	
	
	
	
	
	
	
	
	
	
	
	
	
	
	
	
	
	
	
	
	
	
	
	
	
	
	
	
	
	
	
	
	
	
	
	
	
	
	
	
	
	
	
	
	
	
	
	
	
	
	
	
	
	
	
	
	
	
	
	
	
	
	
	
	
	
	
	
	
	
	
	
	
	
	
	
	
	
	
	
	
	
	
	
	
	
	
	
	
	
	
	
	
	
	
	
	
	
	
</defs><sodipodi:namedview
   pagecolor="#ffffff"
   bordercolor="#666666"
   borderopacity="1"
   objecttolerance="10"
   gridtolerance="10"
   guidetolerance="10"
   inkscape:pageopacity="0"
   inkscape:pageshadow="2"
   inkscape:window-width="1366"
   inkscape:window-height="705"
   id="namedview25967"
   showgrid="false"
   inkscape:zoom="1"
   inkscape:cx="259.49609"
   inkscape:cy="221.67628"
   inkscape:window-x="-8"
   inkscape:window-y="-8"
   inkscape:window-maximized="1"
   inkscape:current-layer="layer11" />

<g
   inkscape:groupmode="layer"
   id="layer11"
   inkscape:label="Layer 1"
   transform="translate(-259.10048,-225.7765)"><g
     id="g26577"><path
       fill="#ffcb05"
       d="m 318.58863,413.15373 c 0,-102.12057 82.32684,-184.89886 183.87647,-184.89886 101.55398,0 183.8813,82.77829 183.8813,184.89886 0,102.10322 -82.32732,184.89114 -183.8813,184.89114 -101.54963,0 -183.87647,-82.78792 -183.87647,-184.89114 z"
       id="path25662"
       style="stroke:none;stroke-width:0.481799"
       sodipodi:nodetypes="ccccc" /><path
       fill="#ef921c"
       d="m 312.00678,410.66572 c 0,-102.11093 82.32684,-184.88922 183.87647,-184.88922 101.55446,0 183.88082,82.77829 183.88082,184.88922 0,102.11238 -82.32636,184.89066 -183.88082,184.89066 -101.54963,0 -183.87647,-82.77828 -183.87647,-184.89066 z"
       id="path25664"
       style="stroke:none;stroke-width:0.481799"
       sodipodi:nodetypes="ccccc" /><path
       fill="#febc11"
       d="m 315.29505,411.49875 c 0,-102.11142 82.32684,-184.89934 183.8813,-184.89934 101.54963,0 183.87647,82.78744 183.87647,184.89934 0,102.11141 -82.32684,184.89066 -183.87647,184.89066 -101.55446,0 -183.8813,-82.77973 -183.8813,-184.89066 z"
       id="path25666"
       style="stroke:none;stroke-width:0.481799"
       sodipodi:nodetypes="ccccc" /><path
       fill="#ffe100"
       d="m 443.64136,588.1126 c 0,0 -13.1637,-4.13432 -19.74555,-7.44524 13.98661,-42.19061 88.85521,-272.98897 113.5363,-349.10109 18.10262,4.13432 35.37847,10.75519 35.37847,10.75519 z"
       id="path25668"
       style="stroke:none;stroke-width:0.481799"
       sodipodi:nodetypes="ccccc" /><path
       fill="#fbd327"
       d="m 441.99409,588.1126 129.7098,-346.80051 c 0,0 31.54479,13.42002 50.49393,33.24988 -29.64218,69.50908 -135.77275,322.65035 -135.77275,322.65035 z"
       id="path25670"
       style="stroke:none;stroke-width:0.481799"
       sodipodi:nodetypes="ccccc" /><g
       id="g26533"><path
         fill="#e43425"
         d="m 584.07503,339.51082 c -10.78651,-7.70155 -50.47659,-20.93559 -81.4148,-8.98458 2.60653,-6.05524 -51.84393,15.81022 -59.14318,17.669 -21.37354,5.44432 -47.00137,17.73163 -55.41068,55.07969 -7.58255,32.87745 17.74464,72.52754 27.6986,83.08808 9.95492,10.56054 19.5509,15.23495 30.22659,18.81086 7.19711,2.41718 15.46525,3.37307 28.78361,5.30316 19.74555,2.86814 51.7071,6.32987 67.486,-0.2568 21.86112,-9.16285 37.71567,-24.14919 48.41352,-41.73917 10.69738,-18.53672 16.50931,-34.11712 20.37719,-55.53017 2.87778,-15.90851 6.3872,-49.99816 -27.01685,-73.44007 z"
         id="path25674"
         style="stroke:none;stroke-width:0.481799"
         sodipodi:nodetypes="ccccccccccc" /><path
         fill="#c52d1e"
         d="m 607.08235,414.03879 c 2.77516,-15.35829 5.30653,-50.47562 -26.94699,-73.11052 -10.41456,-7.4274 -78.09569,-25.95593 -82.60966,-0.64705 -5.16584,9.08286 41.84035,39.49061 47.75828,84.3634 6.06826,46.03248 -25.81813,75.92663 -18.71883,81.12234 15.17328,11.09197 50.50742,-21.11241 60.83766,-38.09918 10.33169,-17.90026 15.93886,-32.9502 19.67954,-53.62899 z"
         id="path25676"
         style="stroke:none;stroke-width:0.481799"
         sodipodi:nodetypes="ccccccc" /><path
         fill="#c52d1e"
         d="m 505.85552,328.0922 c -5.83314,2.39887 -9.29534,6.31108 -10.30856,11.63158 -0.30498,0.68174 -0.49577,1.3895 -0.49577,2.15075 0,4.51541 5.18752,10.5085 12.9069,19.43093 12.63661,14.60669 31.73558,36.6851 35.28596,63.6133 0.51263,3.89535 0.74823,7.67554 0.74823,11.34925 0,23.21883 -9.29582,41.69388 -15.17328,53.37894 -3.01943,5.99406 -5.347,10.63185 -5.347,13.91579 0,1.6198 0.56178,2.91343 1.88528,3.87751 3.45257,2.52366 7.90053,3.26708 13.22103,2.19604 17.59432,-3.52339 42.09715,-26.94747 50.57825,-40.8888 10.61787,-18.4047 16.20384,-33.62038 19.94838,-54.33482 3.33742,-18.44903 4.16563,-52.75164 -27.79158,-75.17503 -8.90171,-6.35685 -55.00019,-19.55524 -75.45784,-11.14544 z m 21.9228,176.00244 c -1.18186,-0.8682 2.22639,-7.63988 4.70958,-12.57928 7.01884,-13.96107 18.76653,-37.31288 14.83602,-67.14488 -3.71322,-28.1592 -23.29833,-50.79554 -36.26401,-65.77321 -6.10343,-7.05546 -13.02157,-15.05813 -11.75107,-17.28934 l 0.17682,-0.3098 0.0617,-0.35412 c 0.71258,-3.99218 3.28394,-6.8425 7.86103,-8.72778 18.92167,-7.77237 63.30736,4.83292 71.53599,10.70267 30.08447,21.1129 29.27023,53.58323 26.11011,71.05758 -3.64721,20.19217 -9.09635,35.04554 -19.43093,52.95399 -8.17998,13.44748 -31.89506,35.75475 -47.8479,38.951 -4.15069,0.83255 -7.51364,0.32811 -9.99731,-1.48683 z"
         id="path25678"
         style="stroke:none;stroke-width:0.481799"
         sodipodi:nodetypes="ccsccscsccccccsscccccccccccs" /><path
         fill="#d43528"
         d="m 522.04684,347.41617 c -4.51493,11.03897 11.61857,12.33212 18.07226,24.01718 14.8895,26.94699 9.03806,33.09859 22.59105,38.93269 9.50733,4.09866 16.16001,-6.70085 19.36011,-14.92515 5.81194,-14.92516 -9.03372,-33.74565 -20.65181,-42.18147 -8.14047,-5.91359 -35.29993,-15.77552 -39.37161,-5.84325 z"
         id="path25680"
         style="stroke:none;stroke-width:0.481799"
         sodipodi:nodetypes="cccccc" /><path
         fill="#e87254"
         d="m 492.81227,365.24513 c -7.92318,-2.48705 -19.21027,-1.09706 -24.26048,3.98399 -5.9401,5.96611 -14.10128,34.36476 -1.72147,50.79457 10.8,14.32387 53.76872,9.92409 55.44248,-7.47125 1.71232,-17.75813 -17.8381,-43.6601 -29.46053,-47.30731 z"
         id="path25682"
         style="stroke:none;stroke-width:0.481799"
         sodipodi:nodetypes="ccccc" /><path
         fill="#ea896a"
         d="m 439.43622,359.10123 c -3.59855,-4.222 -16.64228,2.46151 -20.0062,5.84325 -3.95653,3.97436 -20.63061,18.19127 -10.97248,27.9024 5.16584,5.18753 16.1335,-8.43581 20.65229,-13.63297 10.29074,-11.81803 14.19909,-15.57125 10.32639,-20.11268 z"
         id="path25684"
         style="stroke:none;stroke-width:0.481799"
         sodipodi:nodetypes="ccccc" /><path
         fill="#c52d1e"
         d="m 448.47476,375.97382 c 21.94062,-29.84983 46.48826,-28.0614 63.75881,-11.17147 -11.61376,-25.30935 -5.98828,-33.18821 0.13297,-36.20571 -20.65229,-1.29267 -59.37685,14.92515 -75.51131,22.06878 16.78056,0.64609 13.55347,8.43581 11.61953,25.3084 z"
         id="path25686"
         style="stroke:none;stroke-width:0.481799"
         sodipodi:nodetypes="ccccc" /><path
         fill="#3a5529"
         d="m 454.92749,362.99705 c 11.61423,-20.76744 33.63917,-22.56503 45.17873,-12.33163 -5.80712,-9.73715 0.33147,-17.75765 6.45369,-20.76792 -4.51975,-7.13496 15.57076,-23.67944 30.5942,-29.54003 -10.99512,-3.70022 -33.31684,2.54967 -47.58242,21.30754 -2.19507,-1.46949 -3.29261,-3.61157 -4.18683,-7.32045 -2.1864,-9.00337 0.37147,-24.86611 -1.70894,-27.00866 -12.31332,4.89507 -21.33355,21.50266 -20.70047,42.4026 -11.58774,-11.9592 -34.48473,-12.27767 -48.22369,-6.68351 4.23163,2.59401 35.67525,23.69775 27.99586,25.64566 -3.32441,0.84941 14.11477,-2.57666 12.17987,14.2964 z"
         id="path25688"
         style="stroke:none;stroke-width:0.481799"
         sodipodi:nodetypes="ccccccccccc" /><path
         fill="#4a7c3b"
         d="m 420.60272,323.79889 c 0,0 19.19196,-4.82569 29.74431,1.44299 -17.74898,-0.96601 -17.74898,0.96408 -15.83238,6.75385 -1.9166,-0.96456 -13.91193,-8.19684 -13.91193,-8.19684 z"
         id="path25690"
         style="stroke:none;stroke-width:0.481799"
         sodipodi:nodetypes="cccc" /><path
         fill="#506d39"
         d="m 480.81211,291.23991 c 0,0 -8.39678,6.50573 -10.79566,14.7122 6.2364,-5.31135 11.27361,0.23897 11.27361,0.23897 z"
         id="path25692"
         style="stroke:none;stroke-width:0.481799"
         sodipodi:nodetypes="cccc" /></g><path
       id="path25710"
       style="fill:#000000;stroke:none;stroke-width:0.481799"
       d="m 645.90857,327.58727 c 2.17387,3.51424 3.13843,6.45369 2.9038,8.81692 -0.23897,2.35454 -1.69112,4.3728 -4.36462,6.03645 l -7.85668,4.91338 c -2.53619,1.57596 -4.78041,2.09823 -6.74085,1.54946 -1.96044,-0.54876 -3.80235,-2.21338 -5.51948,-5.00203 l -13.71632,-22.20127 22.84736,-14.26943 z m -6.95814,1.38132 -6.78517,-10.98597 -11.66337,7.2766 7.33056,11.87104 c 0.92024,1.48731 1.89443,2.38104 2.92114,2.69999 1.03154,0.3098 2.18592,0.0626 3.47907,-0.74389 l 4.01917,-2.51403 c 1.34132,-0.83206 2.06691,-1.86745 2.17772,-3.09796 0.11419,-1.23051 -0.3811,-2.73565 -1.47912,-4.50578 z m -22.55106,-30.97435 -16.00486,-13.92542 -2.66001,3.08978 15.07933,13.11937 -3.69973,4.29331 -15.07982,-13.11938 -2.65567,3.09845 16.25251,14.13693 -4.27548,4.96686 -22.47205,-19.55524 17.59384,-20.44897 22.22826,19.33313 z m -46.41743,-10.09223 -7.23662,-3.9387 12.78694,-23.78688 7.23709,3.93919 z m -10.31723,-28.51332 -20.33431,-5.97526 -1.34085,4.61225 19.15631,5.6303 -1.83228,6.30241 -19.15631,-5.6303 -2.52269,8.69357 -7.89668,-2.31938 7.54207,-25.9646 28.23099,8.29464 z m -46.42659,10.07441 -8.20599,-0.59358 1.93008,-26.97349 8.20551,0.60225 z m -29.93848,0.10648 -8.14818,1.12403 -2.76215,-20.22831 -11.15893,1.54031 -0.89374,-6.55969 30.46123,-4.20417 0.89855,6.55005 -11.15893,1.54079 z m -49.5419,-14.89914 c 3.88619,-1.7788 6.79384,-2.40755 8.72827,-1.88528 1.93008,0.5136 3.58988,2.31071 4.97986,5.38217 0.96408,2.13389 1.36687,3.85969 1.21269,5.18753 -0.15899,1.31916 -0.89422,2.4962 -2.20423,3.52339 1.43432,-0.2833 2.65568,-0.18694 3.65541,0.30016 1.00069,0.4871 1.7841,1.34566 2.34636,2.594 l 2.26686,5.01071 -7.49871,3.42607 -1.68582,-3.72671 c -0.43843,-0.96553 -0.96504,-1.52249 -1.58511,-1.67377 -0.61526,-0.159 -1.59716,0.0708 -2.93464,0.68174 l -11.16231,5.10851 2.8325,6.25808 -7.48908,3.42559 -11.13581,-24.60882 z m 2.48705,6.24941 -11.90573,5.44432 2.74818,6.07259 11.90235,-5.44384 c 1.00022,-0.46108 1.59331,-1.01852 1.7788,-1.67377 0.1855,-0.65525 0,-1.60198 -0.55792,-2.83249 -0.44181,-0.98287 -0.97757,-1.59379 -1.60632,-1.84144 -0.62874,-0.24716 -1.416,-0.15899 -2.35936,0.27463 z m -33.79383,18.35074 -15.88105,14.07623 2.68699,3.06327 14.95985,-13.2615 3.74068,4.26729 -14.96081,13.26054 2.687,3.06231 16.12483,-14.28774 4.31499,4.92206 -22.29475,19.75855 -17.78415,-20.28082 22.05578,-19.54561 z m -34.91353,40.89891 -0.22548,-0.14261 c -0.89037,-0.54877 -1.72147,-0.65428 -2.4962,-0.31799 -0.77907,0.33582 -1.56247,1.15054 -2.34636,2.43453 l -3.44775,5.6303 c -1.47382,2.40803 -2.13292,4.13335 -1.97393,5.17837 0.15418,1.04454 1.15487,2.12473 2.99149,3.26611 l 3.17312,1.96526 c 1.66028,1.02767 3.02811,1.34566 4.11263,0.96504 1.08405,-0.38062 2.31456,-1.6993 3.6954,-3.95653 l 2.49668,-4.07216 c 1.37216,-2.23988 2.04523,-3.84234 2.02307,-4.81606 -0.0226,-0.97371 -0.64272,-1.83276 -1.85926,-2.58485 l -0.24764,-0.15899 4.36798,-7.12628 c 0.0308,0.0178 0.0891,0.0448 0.17682,0.0891 0.69138,0.38014 1.19534,0.67259 1.5273,0.87591 1.46901,0.91156 2.57088,1.85011 3.30177,2.81515 0.72607,0.96456 1.13752,2.01777 1.22666,3.16879 0.0973,1.09753 -0.11997,2.34587 -0.65091,3.74405 -0.53143,1.39915 -1.53598,3.3114 -3.01895,5.72811 l -4.80642,7.85235 c -1.47431,2.40803 -2.68699,4.09866 -3.63903,5.07237 -0.95107,0.98239 -1.9826,1.68196 -3.09363,2.09775 -1.29652,0.47795 -2.61134,0.60177 -3.93485,0.3628 -1.3235,-0.2303 -2.79732,-0.85857 -4.42146,-1.85926 l -6.23255,-3.85921 c -3.28393,-2.02741 -5.0902,-4.23164 -5.42649,-6.60401 -0.34112,-2.37286 0.75305,-5.61247 3.27526,-9.73715 l 4.80643,-7.85283 c 1.54512,-2.52222 2.79828,-4.31114 3.75417,-5.37254 0.96022,-1.05369 1.91659,-1.76194 2.87248,-2.12473 1.00455,-0.38978 2.07993,-0.4606 3.22661,-0.23078 1.15101,0.23897 2.43404,0.79689 3.85101,1.67377 0.3363,0.20283 0.59743,0.37146 0.76992,0.48709 0.17682,0.11467 0.34111,0.22982 0.49191,0.35364 l -4.3198,7.05546 z"
       sodipodi:nodetypes="ccccccccccccccccccccccccccccccccccccccccccccccccccccccccccccccccccccccccccccccccccccccccccccccccccccccccccccccccccccccccccccccccccccccccc" /><path
       id="path25780-5"
       style="fill:#000000;stroke:none;stroke-width:0.481799"
       d="m 241.58984,310.95703 c -89.44879,-4.8e-4 -165.982432,5.02755 -194.978512,12.80859 -0.5666,0.14985 -0.951619,0.69097 -0.912109,1.2754 0.274687,4.2768 0.574869,8.32473 0.884765,12.24218 L 0,350.22656 l 0.97460938,1.4336 c 6.27591002,9.2515 15.80062562,18.59937 22.10351562,24.78711 0,0 1.541074,1.51317 2.271484,2.23828 -8.49411,22.13045 -14.301555,38.74738 -14.359375,38.91601 l -0.779296,2.23047 60.0625,-16.67773 -1.626954,-12.69727 c 76.557396,-12.23261 267.360776,-12.15317 344.576176,0.24219 l -0.17383,2.39453 -1.52539,10.06055 60.06445,16.67773 -0.7793,-2.23047 c -0.0622,-0.16863 -5.86575,-16.78556 -14.35937,-38.91601 0.7304,-0.72559 2.2793,-2.25782 2.2793,-2.25782 6.30289,-6.17955 15.82413,-15.5268 22.0957,-24.77734 l 0.97461,-1.42578 -46.93164,-13.03906 1.22656,-12.0918 c 0.0621,-0.60176 -0.31792,-1.16866 -0.90234,-1.32813 -28.15486,-7.78105 -104.15375,-12.80859 -193.60157,-12.80859 z"
       transform="translate(259.10048,225.7765)"
       sodipodi:nodetypes="ccccccccccccccccccccccccc" /><path
       style="fill:#ffe100;fill-opacity:1;stroke:none;stroke-width:0.481799"
       d="m 336.45703,213.65231 v 6.28321 h 29.51758 v -19.96094 h 17.6875 v 19.96094 h 29.61523 V 154.7832 h -29.61523 v 18.82032 h -17.6875 V 154.7832 h -29.51758 v 8.14649 c -0.92758,-1.49042 -2.07022,-2.80333 -3.42773,-3.93164 -3.90787,-3.24829 -9.50221,-4.83399 -17.10547,-4.83399 h -23.68555 c -6.11209,0 -10.36581,0.35425 -13.38476,1.09766 -3.58073,0.89422 -6.59486,2.48643 -8.9629,4.74414 l -0.11523,0.11523 c -0.16416,0.1642 -0.31947,0.33735 -0.47656,0.50782 v -5.84571 h -6.9961 -62.42578 v 8.12696 c -0.8078,-1.10177 -1.72572,-2.08625 -2.76562,-2.93946 -4.30246,-3.54026 -10.94205,-5.1875 -20.89649,-5.1875 H 66.777344 v 65.15235 h 29.513672 v -17.16407 h 32.177734 v 17.16407 h 29.51367 v -13.13672 h 16.11133 v 13.13672 h 29.55078 66.26953 v -4.59766 c 0.5202,0.45389 1.04023,0.85455 1.54688,1.19141 4.13431,2.74432 10.78427,4.02734 20.91601,4.02734 h 20.68164 c 4.83388,0 8.51722,-0.213 11.24805,-0.65625 3.31526,-0.53914 5.99285,-1.47586 8.24121,-2.91115 1.52714,-1.01702 2.80779,-2.12309 3.90918,-3.33693 z"
       id="path25736"
       sodipodi:nodetypes="cccccccccccccccccccccccccccccccccccccccccccccc"
       transform="translate(259.10048,225.7765)" /><path
       id="polyline25774"
       style="fill:#e43425;stroke:none"
       d="M 715.613,440.45 V 334.416 h 32.228 v 39.063 h 65.741 v -39.063 h 32.447 V 440.45 h -32.447 v -41.43 h -65.741 v 41.43 z M 597.491,405.17391 v 1.928 c 0,3.96901 0.96399,6.67001 2.92199,8.06501 1.93801,1.397 6.026,2.09601 12.23501,2.09601 h 40.45 c 3.941,0 6.762,-0.68102 8.452,-2.03901 1.689,-1.36001 2.535,-3.60101 2.535,-6.761 0,-3.197 -0.974,-5.476 -2.931,-6.873 -1.94699,-1.378 -6.14601,-2.31399 -12.59601,-2.79301 l -50.609,-1.12099 c -12.69499,-0.38499 -21.28499,-2.81101 -25.76,-7.257 -4.48399,-4.46499 -6.71498,-12.587 -6.71498,-24.34501 0,-6.06299 0.58699,-11.07898 1.77198,-15.012 1.18701,-3.93199 3.07702,-7.20099 5.68701,-9.81099 3.07801,-2.958 7.10199,-5.03301 12.082,-6.26699 4.97901,-1.229 13.071,-1.85402 24.307,-1.85402 h 49.158 c 12.155,0 20.9,2.22301 26.256,6.66902 5.347,4.44698 8.02101,11.64899 8.02101,21.646 0,0.65998 -0.0208,1.35799 -0.037,2.12999 -0.028,0.75399 -0.10191,1.98401 -0.249,3.675 h -30.95 v -0.422 c 0,-3.51001 -0.88101,-6.138 -2.65501,-7.883 -1.77198,-1.764 -4.42699,-2.62801 -7.96399,-2.62801 h -37.11499 c -6.19102,0 -10.27901,0.606 -12.25401,1.856 -1.984,1.23 -2.979,3.399 -2.979,6.50401 0,3.051 0.901,5.254 2.692,6.61501 1.79201,1.35899 5.09899,2.23998 9.913,2.60698 l 52.92501,0.86501 c 12.06298,0.33101 20.561,3.06599 25.48399,8.194 4.92401,5.127 7.38601,13.89 7.38601,26.29099 0,7.37001 -0.9,13.06401 -2.719,17.08802 -1.811,4.042 -4.86002,7.47899 -9.141,10.32799 -2.83,1.81899 -6.67001,3.10399 -11.52102,3.89501 -4.84098,0.77098 -11.86,1.17598 -21.04799,1.17598 h -42.91899 c -17.649,0 -29.44401,-1.984 -35.407,-5.93598 -5.962,-3.96901 -8.93801,-11.35402 -8.93801,-22.15802 0,-0.62599 0.0259,-1.65299 0.10108,-3.10499 0.076,-1.43201 0.17704,-3.214 0.32396,-5.28895 z M 464.364,360.177 v 16.095 h 78.024 v 22.323 h -78.024 v 16.316 h 84.097 V 440.45 H 432.128 V 334.416 h 115.063 v 25.761 z m -61.67001,-18.30001 c 6.05401,4.97902 9.086,14.03701 9.086,27.21101 0,9.13201 -1.351,15.92999 -4.05198,20.377 -2.70101,4.464 -7.22001,7.44099 -13.56001,8.94799 5.58499,1.34102 9.776,3.692 12.56899,7.07101 2.79301,3.38301 4.18802,7.755 4.18802,13.139 v 21.827 h -32.30002 v -16.241 c 0,-4.208 -0.98199,-7.09201 -2.93899,-8.655 -1.957,-1.58 -5.815,-2.36801 -11.565,-2.36801 H 316.15699 V 440.451 H 283.92001 V 334.41599 H 368.509 c 16.73799,0 28.12999,2.50001 34.18499,7.461 z M 367.30601,360.819 H 316.155 v 25.759 h 51.15101 c 4.28199,0 7.294,-1.011 9.012,-3.012 1.72798,-2.002 2.591,-5.623 2.591,-10.85801 0,-4.15399 -0.928,-7.166 -2.76601,-9.05999 -1.836,-1.89099 -4.78601,-2.829 -8.83699,-2.829 z M 188.1,360.177 v 19.107 h 78.013 v 25.54 H 188.1 V 440.45 H 155.872 V 334.416 h 115.055 v 25.761 z"
       sodipodi:nodetypes="ccccccccccccccccccccccccccccccccccccccccccccccccccccccccccccccccccccccccccccccccccccccccccccccccccccccccc"
       transform="matrix(0.48179852,0,0,0.48179852,259.10048,225.7765)" /><path
       id="path26426"
       style="fill:#3a5529;fill-opacity:1;stroke:none;stroke-width:0.481799"
       d="m 46.78125,339.79883 c -13.598227,3.77808 -40.2452735,11.1806 -42.7480469,11.8789 6.1260699,8.58613 14.8622229,17.19131 20.7714849,22.99024 l 3.429687,3.39062 -0.291016,0.75977 c -6.83383,17.77644 -11.955431,32.06341 -13.832031,37.35742 4.015893,-1.11222 47.814847,-13.28096 51.984375,-14.4375 l -13.392578,-8.52539 c -0.09399,-0.0615 -0.174549,-0.13675 -0.248047,-0.21875 -0.05856,-0.0653 -0.110722,-0.13512 -0.154297,-0.21094 -0.04375,-0.0761 -0.08056,-0.15584 -0.107422,-0.24023 -0.0068,-0.0207 -0.0079,-0.0434 -0.01367,-0.0645 -0.01756,-0.064 -0.03545,-0.12882 -0.04297,-0.19532 L 50.330078,375.35742 C 49.167572,364.87555 47.89354,353.34815 46.78125,339.79883 Z"
       transform="translate(259.10048,225.7765)"
       sodipodi:nodetypes="ccccccccccccccc" /><path
       id="path26414"
       style="fill:#3a5529;fill-opacity:1;stroke:none;stroke-width:0.481799"
       d="m 434.61328,339.6875 -0.79101,7.79492 c -1.69015,17.03158 -3.15157,31.73523 -5.08985,44.86328 -0.009,0.054 -0.0258,0.10597 -0.041,0.15821 -0.006,0.022 -0.0101,0.0449 -0.0176,0.0664 -0.0243,0.0696 -0.0559,0.13499 -0.0918,0.19922 -0.008,0.0138 -0.0113,0.0295 -0.0195,0.043 -0.0452,0.074 -0.0999,0.14374 -0.16016,0.20703 -10e-4,10e-4 -0.003,0.003 -0.004,0.004 -0.023,0.0239 -0.0511,0.0424 -0.0762,0.0645 -0.0378,0.0334 -0.0728,0.069 -0.11524,0.0977 -0.009,0.006 -0.0185,0.01 -0.0273,0.0156 -0.005,0.003 -0.009,0.007 -0.0137,0.01 l -13.17969,8.32812 c 3.0708,0.85121 48.62943,13.50916 52.70117,14.63672 -1.8766,-5.29401 -6.9982,-19.58098 -13.83203,-37.35742 l -0.30078,-0.75977 3.45312,-3.40039 c 5.90444,-5.79796 14.63656,-14.40205 20.75781,-22.98047 -2.52577,-0.70444 -29.58324,-8.22044 -43.15234,-11.99023 z"
       transform="translate(259.10048,225.7765)"
       sodipodi:nodetypes="cccccccccccccccccccc" /><path
       style="fill:#506d39;fill-opacity:1;stroke:none;stroke-width:0.481799"
       d="m 500.69064,539.21178 c 88.22646,0 163.2237,4.88592 191.9413,12.46413 -0.19464,1.9296 -2.16472,21.33452 -2.16472,21.33452 -1.6333,16.438 -3.05412,30.69057 -4.89074,43.42932 -70.78294,-15.6864 -303.75951,-15.69555 -372.03373,-0.0178 -0.24765,-2.35503 -1.65883,-15.56257 -1.65883,-15.56257 -1.53212,-13.81846 -3.25792,-29.47836 -4.55059,-49.16561 29.50438,-7.58688 105.06773,-12.48196 193.35731,-12.48196 z"
       id="path26410"
       sodipodi:nodetypes="ccccccccc" /><path
       id="path25672"
       style="fill:#000000;stroke:none;stroke-width:0.481799"
       d="m 237.01367,233.91406 -6.55469,0.33594 -9.91601,0.51367 c 0,0 -3.09731,7.12688 -4.45117,10.24219 -0.5796,-0.0178 -7.27735,-0.17774 -7.27735,-0.17774 l -0.80859,14.91602 c -3.35185,-1.71228 -7.10706,-2.58398 -11.24024,-2.58398 -5.34423,0 -9.95726,1.26713 -13.77343,3.7539 0.15069,-1.00587 0.23437,-2.04163 0.23437,-3.11523 0,-0.25631 -0.005,-0.52262 -0.0137,-0.78906 -0.1477,-4.27594 -1.32968,-7.51296 -2.94727,-9.96875 -1.79529,-3.70696 -4.57077,-5.97798 -7.02734,-7.34571 -4.70187,-2.62869 -11.46548,-3.76364 -20.6582,-3.43554 l -10.95508,0.6289 -16.75781,1.70899 0.26562,5.56836 0.69141,26.68945 c 0,0.01 0.1289,12.7207 0.1289,12.7207 l -0.58984,17.0586 1.13086,-0.0117 -0.0645,1.88867 6.40429,-0.0723 19.89649,-0.68945 c 0,0 -0.6777,-12.85292 -0.96485,-18.32422 0.84236,-0.011 1.24462,-0.0173 1.72461,-0.0234 0.12991,1.59186 0.29297,3.59961 0.29297,3.59961 l 2.16016,13.03907 0.75391,-0.0156 0.24218,1.46289 c -1.44427,0.43224 -2.84814,0.98417 -4.20507,1.66211 v -0.002 c -0.10166,0.052 -0.17807,0.13302 -0.2754,0.18554 h -24.90429 l 0.48828,13.18555 c -0.48611,-0.20159 -1.0686,-0.39889 -1.80859,-0.58398 0.003,-0.0823 0.0176,-0.15797 0.0176,-0.24219 v -6.01953 h -1.0664 v -1.86914 h -5.98438 c -3.09796,0 -5.1167,0.75334 -6.75,1.6914 -1.97392,-2.3372 -4.465,-4.17838 -6.9082,-5.16992 l -10.929689,-4.46094 c 0,-9.7e-4 2.14864,8.58546 2.59961,10.40039 -5.38651,-0.77907 -10.654183,0.26673 -15.726563,3.57813 -2.399253,1.54262 -4.441825,3.43138 -6.11914,5.5918 -0.343396,-4.72387 -0.549311,-7.5616 -0.769532,-10.59571 4.51012,-0.12382 15.56836,-0.42578 15.56836,-0.42578 l -0.810547,-14.02929 c 0,-0.009 0.216797,-13.03125 0.216797,-13.03125 l -1.097657,0.0645 0.03125,-1.93164 -6.701171,0.38086 c 0,0 -26.401865,2.75158 -26.765626,2.79687 -0.367129,0.009 -31.761718,1.31055 -31.761718,1.31055 l 1.40625,31.07227 0.978515,-0.11719 0.08984,1.98437 9.896485,-1.19531 c 0.026,0 4.222656,-0.48633 4.222656,-0.48633 0.0039,0 1.659522,-0.0822 3.15039,-0.1582 0.480765,6.50897 1.146485,15.58789 1.146485,15.58789 l 1.373047,29.04492 0.972656,-0.0215 c 0.01082,0.22958 0.08984,1.88867 0.08984,1.88867 l 6.113281,-0.13281 8.652344,-0.29102 17.886718,0.33594 -0.04883,-0.39258 c 3.646529,4.8021 8.215451,8.4605 13.248047,10.47461 6.19641,2.45139 12.848442,2.8763 19.257812,1.23047 l 4.4707,-1.14258 0.0352,-4.63867 c 0.0217,-2.25674 1.12912,-4.23979 2.52344,-4.4961 0.76944,-0.14165 1.52266,0.27454 2.00976,0.64649 l 4.32813,3.31055 3.68554,-4.00977 c 0.58602,-0.63579 1.13557,-1.29182 1.66602,-1.95703 l 4.43359,-0.0703 6.91797,-0.3086 c 0.0178,0 15.83789,-0.57617 15.83789,-0.57617 l 0.19532,-5.55078 0.0703,-2.41602 c 0,0.0504 0.0229,-3.21566 0.0254,-3.55859 0.009,3.23661 0.0273,9.33789 0.0273,9.33789 L 159,357.33984 c 4.9e-4,0.17122 0.006,1.89649 0.006,1.89649 l 8.42773,-0.22852 c 0.005,0 1.93164,-0.0625 1.93164,-0.0625 l 5.52735,0.20313 14.3418,1.07031 0.0254,-2.22266 0.90429,0.0606 -0.084,1.79102 6.06836,0.39843 16.58398,0.51758 c 1.02778,2.06255 2.49005,3.8752 4.375,5.37891 3.68287,2.92067 8.53934,4.39844 14.43946,4.39844 3.851,0 7.64808,-0.56677 11.2871,-1.68164 1.29217,-0.39767 2.50619,-0.91999 3.71485,-1.44532 0.23445,0.50366 0.61719,1.33008 0.61719,1.33008 l 0.18164,-0.0293 c 0.38773,0.83137 0.88476,1.89844 0.88476,1.89844 l 11.01745,-1.7813 c 0.008,0 3.03669,-0.29101 3.04102,-0.29101 0,0.008 1.86328,0.13086 1.86328,0.13086 0.0357,0.01 10.83007,0.83398 10.83008,0.83398 l -1.32813,-7.75391 -0.0566,-0.33007 c 1.77058,1.35741 3.7551,2.44923 5.93555,3.24218 3.0228,1.09754 6.57337,1.66407 10.53906,1.66406 6.43971,0 11.6132,-1.49571 15.38086,-4.44335 2.29672,-1.80079 4.9309,-4.84524 5.93359,-9.67383 2.5298,2.37304 5.53512,4.35063 8.95117,5.79687 l 4.43555,1.86719 2.77539,-3.93945 c 0.46012,-0.65428 0.87118,-0.87696 0.98633,-0.87696 0.12033,0 0.39702,0.16799 0.71289,0.51172 l 1.46484,3.4375 0.26172,-0.0195 0.80664,1.89649 4.26172,-0.31836 c 4.00519,-0.29149 7.95271,-1.18702 11.73242,-2.63868 h -0.004 l 0.0176,-0.01 c -0.004,4.8e-4 -0.004,2.4e-4 -0.0137,0.01 2.69561,-1.03156 5.16916,-2.4213 7.39063,-4.11132 0.71489,2.93513 1.84159,5.62904 3.37695,8.07031 1.42244,2.74094 3.30347,5.20098 5.6543,7.36133 5.74497,5.27666 13.45557,7.96679 22.92773,7.96679 7.51991,0 13.86754,-1.84925 18.86524,-5.48828 5.15187,-3.76284 8.28921,-8.98488 9.42578,-15.48242 h 1.08008 v -0.94531 c 4.8383,2.67014 11.04767,3.64132 18.97265,2.9375 7.93185,-0.69813 14.21171,-3.08912 18.66016,-7.09961 4.35498,-3.93822 6.61719,-9.11765 6.61719,-15.06641 0,-0.69957 -0.0308,-1.41493 -0.0977,-2.13281 -0.36263,-4.20474 -1.59529,-7.41549 -3.23242,-9.88672 -0.40591,-0.80778 -0.85004,-1.55211 -1.32813,-2.23633 0.83175,-0.0603 1.81641,-0.1289 1.81641,-0.1289 l -1.67383,-6.89649 c -0.68652,-2.915 -1.72815,-5.44922 -3.11133,-7.59765 -1.77302,-3.51339 -4.30884,-6.1788 -7.58593,-7.94727 -4.39159,-2.38009 -10.37957,-3.1947 -18.30274,-2.49609 -8.39582,0.73474 -14.32428,2.78046 -18.10351,6.24218 -3.66504,3.34513 -5.51368,7.99269 -5.51368,13.83594 0,0.84074 0.0392,1.70734 0.11915,2.60156 0.0332,0.38735 0.0884,0.74826 0.13476,1.11915 -5.13225,-3.94706 -11.52099,-5.94336 -19.05273,-5.94336 -7.24749,0 -13.45896,1.85817 -18.5293,5.52734 -0.61118,-2.54955 -1.51523,-4.99316 -2.71094,-7.23633 l -2.67283,-4.94533 -1.03807,-1.88088 -5.32421,2.39261 c -2.66109,-10.5537 -0.97757,-22.41442 -0.83602,-33.33203 0,-4.37493 -0.95041,-7.95322 -2.8125,-10.68164 -0.57104,-1.20313 -1.26754,-2.29097 -2.11719,-3.23438 -2.73083,-3.01895 -6.64513,-4.54883 -11.625,-4.54883 -3.08977,10e-4 -6.23968,0.63694 -9.35547,1.88672 -0.47409,0.19465 -0.94045,0.48832 -1.41406,0.70899 -0.80414,-0.0503 -11.64168,-0.70922 -16.36133,-0.9961 -0.89703,-1.62668 -1.98317,-3.12262 -3.26758,-4.47656 -4.42243,-4.67296 -10.34016,-7.04688 -17.58593,-7.04688 -6.3517,0 -11.70203,1.83575 -15.94141,5.45313 -1.50587,-0.0571 -5.12406,-0.1954 -7.4043,-0.2832 0.1158,-2.92207 0.32422,-8.19727 0.32422,-8.19727 l -1.14062,0.0586 c 0.0203,-0.51462 0.0762,-1.92578 0.0762,-1.92578 l -6.54688,0.33789 -9.91406,0.50391 c 0,0 -0.98456,2.26931 -1.50781,3.47461 -0.0542,-0.002 -0.55312,-0.021 -0.66992,-0.0254 l 0.11914,-1.82227 c 0,0 -6.0952,-0.23301 -8.81055,-0.33789 0.11685,-2.92216 0.33008,-8.19531 0.33008,-8.19531 l -1.14453,0.0586 c 0.0208,-0.51473 0.0781,-1.92578 0.0781,-1.92578 z m 69.71485,57.68555 -0.41407,10.18555 1.13867,-0.0274 -0.0781,1.9043 4.39258,-0.10938 -1.27149,0.49805 c 0,0 1.10491,1.12271 1.62305,1.65039 l -0.55664,0.21875 c 0,0 1.45055,1.47566 2.5332,2.57813 -1.54399,0.80228 -2.97393,1.72496 -4.25781,2.77929 l 0.19727,-3.01172 c 0,0 -1.04225,-0.0396 -1.1836,-0.0449 l 0.11914,-1.82226 c 0,0 -8.15469,-0.30823 -12.31836,-0.46289 0.14361,-3.62686 0.33344,-8.32929 0.39844,-9.94336 3.38399,-0.66783 6.3785,-1.92916 8.93164,-3.79297 0.26018,-0.19017 0.49863,-0.39859 0.7461,-0.59961 z m -29.80079,2.87695 c -0.55424,1.27496 -4.0068,9.21843 -5.64648,12.98438 -1.70894,-0.0357 -9.23828,-0.21289 -9.23828,-0.21289 l -0.30469,5.5664 c -4.7859,-3.20907 -11.11439,-4.77148 -19.28516,-4.77148 -8.04651,4.8e-4 -14.92039,1.7181 -20.43554,5.11719 -1.56709,0.96518 -2.88692,1.98626 -4.00586,3.03711 -0.54378,-1.6198 -1.265,-3.11443 -2.1543,-4.48829 -1.00714,-2.02111 -2.32907,-3.81543 -3.97265,-5.36523 -0.71131,-0.6733 -1.47211,-1.28377 -2.27344,-1.83984 2.01941,-0.95291 3.89356,-2.19045 5.61523,-3.71094 1.20846,-1.06637 2.27006,-2.21943 3.1836,-3.44922 9.70019,0.83038 19.65541,0.46196 28.125,-1.03906 1.35223,0.99036 2.8555,1.78934 4.49023,2.38281 2.41285,0.87639 5.20472,1.31836 8.29883,1.31836 5.11237,0 9.25685,-1.22173 12.30664,-3.62109 0.59408,-0.46474 1.21767,-1.03272 1.82031,-1.71289 1.15284,-0.0536 2.31172,-0.12514 3.47656,-0.19532 z m -103.12695,7.6543 10.03516,0.26758 c 0.0606,0.0447 0.12265,0.0868 0.18359,0.13086 -0.54371,0.21153 -1.0778,0.43598 -1.5918,0.68164 -1.33265,0.64609 -2.41655,1.54854 -3.54492,2.39844 -0.80991,-0.70777 -1.5051,-1.52314 -2.46484,-2.11719 -0.84074,-0.51757 -1.71396,-0.97043 -2.61719,-1.36133 z M 302.03516,335 h -6.67774 c 0.0277,-0.91736 0.0571,-1.87773 0.0899,-3.02148 1.75051,-0.0208 3.4933,-0.0431 6.1914,-0.0781 0.0948,1.02841 0.25166,2.17073 0.39644,3.09958 z"
       sodipodi:nodetypes="ccccccccccccccccccccccccccccccccccccccccccccccccccccccccccccccccccccccccccccccccccccccccccccccccccccccccccccccccccccccccccccccccccccccccccccccccccccccccccccccccccccccccccccccccccccccccccccccccccccccccccccccccccccccccccccccccccc"
       transform="translate(259.10048,225.7765)" /><path
       id="path25930"
       style="fill:#d9dc3a;fill-opacity:1;stroke:none;stroke-width:0.481799"
       d="m 489.7665,465.8683 -6.22266,0.32031 -4.57227,10.54297 -5.49414,-0.13281 -0.38476,6.95703 5.08203,0.54101 c -0.52275,3.33742 -0.89824,6.17975 -1.10156,8.54297 -0.20765,2.36419 -0.22643,4.66782 -0.31446,7.13572 -0.0863,2.41876 0.21978,4.49261 1.63672,6.13381 1.17863,1.36517 2.74441,2.28446 4.50586,2.92188 1.77543,0.63646 3.86547,0.96484 6.27734,0.96484 3.76238,0 6.63368,-0.78891 8.6211,-2.33789 1.9826,-1.55766 2.98828,-3.79809 2.98828,-6.71875 0.0117,-1.3077 -0.10827,-2.5764 -0.2578,-3.78906 h -6.4668 l 0.25391,4.47851 -5.96289,-0.0605 0.5039,-16.83008 9.75977,-0.12305 0.57226,-8.71094 -9.80468,-0.37109 z m -75.03051,2.05558 c -6.46889,0.0789 -10.0361,0.29244 -13.64332,0.57525 -3.60289,0.28378 -7.26763,0.66244 -10.97266,1.12304 l 0.68945,26.68946 c 0.12431,4.86954 0.16842,9.18233 0.12891,12.93554 -0.0352,3.76237 -0.15867,7.39177 -0.375,10.92383 l 13.80469,-0.47851 -0.97461,-18.47657 14.66406,-0.16601 c -0.003,3.46127 0.25972,7.59672 0.65623,10.78906 0.32281,2.54005 0.75226,5.09946 1.2832,7.70117 l 16.85354,0.45316 c -0.50878,-1.01804 -0.88474,-2.13521 -1.13672,-3.36524 -0.51863,-3.27947 -0.50385,-5.82062 -0.625,-9.25976 -0.13249,-4.0023 -1.1405,-7.0912 -3.01758,-9.25977 -1.87227,-2.16906 -4.63898,-3.44225 -8.29101,-3.83203 3.74936,-0.79689 6.6189,-2.34651 8.59765,-4.65625 1.97826,-2.31938 2.90655,-5.20526 2.78321,-8.66602 -0.16863,-4.84352 -2.10752,-8.31338 -5.81641,-10.375 -3.2537,-1.82035 -8.13973,-2.73428 -14.60863,-2.65535 z m 103.10472,5.87801 -6.21679,0.32813 -4.57813,10.52539 -5.49804,-0.125 -0.37891,6.95898 5.08984,0.53906 c -0.53094,3.32875 -0.89013,6.17927 -1.10742,8.54297 -0.20332,2.37238 -0.22296,4.66642 -0.3125,7.13908 -0.0879,2.42661 0.21839,4.48631 1.63672,6.13045 1.17618,1.36343 2.7353,2.28494 4.50977,2.92188 1.76627,0.63742 3.8505,0.96289 6.27539,0.96289 3.75369,0 6.63215,-0.77781 8.61523,-2.33594 1.98742,-1.55862 2.99219,-3.79869 2.99219,-6.72851 0.01,-1.30314 -0.11132,-2.55908 -0.25784,-3.77149 h -6.47071 l 0.25196,4.48047 -5.9629,-0.0703 0.50586,-16.82813 9.76368,-0.125 0.56836,-8.71093 -9.80079,-0.3711 z m -97.86132,4.18555 0.0742,11.67773 -13.29101,0.60156 -0.42188,-12.09961 c 4.58408,-0.28821 9.22372,-0.40574 13.63869,-0.17968 z m 128.1914,0.39062 c -5.49251,0 -9.87987,1.68296 -13.18164,5.04688 -3.29261,3.3644 -4.94922,7.83491 -4.94922,13.41992 0,5.33833 1.70327,9.57012 5.125,12.71289 3.40824,3.14229 8.05109,4.71875 13.91602,4.71875 4.62093,0 8.3963,-1.07314 11.32226,-3.20703 2.92115,-2.13292 4.67492,-5.08943 5.26368,-8.86914 l -12.56641,0.41601 -0.38086,3.46094 -10.31641,-0.15039 c -0.19079,-1.0455 -0.34073,-2.10707 -0.44335,-3.16992 -0.11033,-1.07971 -0.16016,-2.15846 -0.16016,-3.26563 2.82768,-0.23994 5.15253,-0.40863 8.41513,-0.54123 1.82409,-0.10696 16.11026,-0.13259 16.11026,-0.13259 v -1.18555 c 0,-5.93093 -1.63289,-10.63287 -4.9043,-14.08399 -3.26177,-3.4439 -7.68234,-5.16992 -13.25,-5.16992 z m 5.37305,7.85156 0.60547,6.5879 h -10.20117 v -6.40235 z m 35.4707,3.52344 c -2.42104,0.9819 -4.83355,2.42563 -7.23242,4.33789 l -0.68555,-3.45312 -9.34375,-0.56641 c 0.12768,1.43383 0.23037,2.89429 0.29297,4.40039 0.0704,1.49502 0.0957,3.15918 0.0957,6.47093 0,3.31174 -0.0525,6.20569 -0.14454,9.57009 -0.0978,3.36343 -0.2448,6.93953 -0.43945,10.71875 l 11.70703,-0.37891 c 0.0833,-2.97511 0.15918,-5.39365 0.23438,-7.25195 0.0708,-1.85059 0.15147,-3.46087 0.23047,-4.83399 l -0.27735,-9.54882 8.98828,-0.53125 0.95704,10.6582 -0.5,12.87891 c 1.83709,0 3.76128,0.0352 5.76171,0.10546 2.00525,0.0805 4.20154,0.19491 6.58789,0.34571 -0.0356,-1.04406 -0.0812,-2.03472 -0.125,-2.98242 -0.10631,-2.60691 -0.0593,-5.32652 -0.0313,-7.79883 0.0178,-1.469 0.0633,-2.96579 0.125,-4.48828 l 0.41016,-7.66211 c 0.24009,-4.48502 -0.73813,-7.15606 -2.28711,-8.88282 -1.54513,-1.70798 -3.94979,-2.56054 -7.18552,-2.56054 -2.34103,0 -4.70845,0.4794 -7.13864,1.45312 z m -133.25,-0.95508 c -5.38169,4.8e-4 -9.66294,1.54829 -12.8457,4.62891 -3.18228,3.08881 -4.77539,7.24081 -4.77539,12.47266 0,5.57682 1.67476,10.09221 5.04687,13.53515 3.35958,3.45257 7.74015,5.16993 13.14063,5.16992 5.1114,0 9.4057,-1.52276 12.88476,-4.59374 3.47425,-3.07244 5.21485,-6.88751 5.21485,-11.44532 0,-5.78158 -1.77224,-10.51806 -5.3125,-14.21875 -3.54555,-3.69973 -7.98869,-5.54883 -13.35352,-5.54883 z m 4.26758,8.69141 1.28711,17.32422 c -4.06346,0.0336 -8.0696,-0.34972 -11.66602,-1.54883 l 1.76563,-14.94336 z m -118.60937,13.98047 -26.94922,2.80469 -25.94727,1.07226 0.8457,18.5625 c 6.0138,-0.9025 12.52384,-1.25046 18.04883,-1.41601 0.6856,7.85958 1.25772,15.65865 1.72266,23.42187 0.45963,7.75551 0.82785,15.51012 1.09765,23.26563 2.75252,-0.19513 5.76266,-0.29365 9.0254,-0.31055 3.27526,-0.0183 6.98071,0.0621 11.13671,0.21289 -0.8281,-5.33945 -1.16042,-10.34124 -1.64648,-15.96094 l -2.65234,-36.38476 15.66015,-0.43164 c -0.39733,-5.09197 -0.66564,-10.01204 -0.34179,-14.83594 z m 246.17968,12.56055 c -2.10257,2.05391 -2.14159,3.35525 -2.57617,5.80664 -0.33148,0.3281 0.13575,3.3823 -0.22656,3.74414 -2.56221,-2.6817 -7.72663,-2.743 -10.81641,-1.4961 0.93421,0.60321 8.01083,5.31248 6.27539,5.7461 -3.54555,0.92987 -7.57682,2.63781 -10.34765,6.63867 0.61092,1.16017 1.06536,2.41688 1.24218,3.82422 0.57142,4.13527 -1.30084,7.98635 -4.39062,10.1289 0.88025,8.00219 6.20234,14.54397 13.83789,17.7754 1.47767,-2.10691 3.54982,-3.41797 5.87305,-3.41797 3.02329,0 5.66633,2.21251 7.06836,5.52343 3.23191,-0.23849 6.60436,-0.92997 10.04297,-2.25781 15.84153,-6.05476 18.72687,-25.18577 12.65429,-36.56055 -1.74797,0.79641 -3.43345,0.98299 -4.94726,0.40821 -2.71734,-1.05322 -4.26639,-4.29251 -4.54102,-8.61328 -3.80187,-1.09754 -8.34941,-0.6652 -13.52344,1.97265 -0.65959,-0.66247 4.32495,-6.49527 4.48828,-7.92187 -0.23897,-0.34449 -4.69076,2.95604 -8.8164,6.62109 -0.66825,-0.66392 -0.63345,-7.24012 -1.29688,-7.92187 z m -38.79492,0.42578 -8.42773,0.43359 -6.21875,14.28711 -7.45899,-0.16797 -0.51367,9.43555 6.90234,0.73437 c -0.71209,4.52361 -1.21775,8.38163 -1.50585,11.59571 -0.27849,3.20396 -0.35878,6.32158 -0.41993,9.67668 -0.0569,3.11946 0.20946,6.20143 2.2168,8.33113 1.68244,1.77061 3.72417,3.09028 6.12305,3.95703 2.38538,0.87688 5.22582,1.30859 8.50976,1.30859 5.09935,0 8.99922,-1.06106 11.69922,-3.16796 2.69132,-2.10691 4.04883,-5.15212 4.04883,-9.12696 0.0168,-1.76891 -0.13194,-3.47286 -0.34962,-5.11523 h -8.77539 l 0.34375,6.0625 -8.08984,-0.0781 0.68554,-22.83984 13.24219,-0.16797 0.77539,-11.81836 -13.29687,-0.50391 z m 137.95117,3.90234 c -6.98415,0.6114 -11.84905,2.18702 -14.60156,4.69141 -2.75348,2.52414 -3.90567,6.34776 -3.46289,11.47265 0.50829,5.78014 2.84741,9.70305 7.03906,11.76563 4.19598,2.06258 12.31805,2.88649 24.37891,2.4707 l 0.52539,6.05274 -15.0293,1.06445 -1.02734,-3.03711 -13.77539,0.1582 0.0273,0.32813 c 0.41242,4.72693 2.50094,8.17103 6.27149,10.32226 3.75369,2.15074 9.01672,2.92855 15.77539,2.33594 6.66135,-0.58442 11.71716,-2.45184 15.1914,-5.58594 3.46992,-3.14277 4.99312,-7.2144 4.55469,-12.18945 -0.48277,-5.57682 -2.93933,-9.39275 -7.35742,-11.4375 -4.41231,-2.0621 -12.41531,-2.81354 -24.01172,-2.27344 l -0.53516,-6.13672 13.33594,-1.16601 1.44336,3.51172 c 2.84213,-0.2568 7.03671,-0.51236 12.5957,-0.77735 0.106,-0.009 0.19555,-0.009 0.24805,-0.0176 -1.11103,-4.70958 -3.31951,-7.95766 -6.63476,-9.7461 -2.48645,-1.34748 -5.9066,-2.01849 -10.27147,-2.02343 -1.45494,-0.002 -3.01433,0.0708 -4.67967,0.21682 z m -272.36523,5.79883 c -2.9038,1.45118 -5.28081,3.48715 -7.13477,6.125 l -0.3457,-5.32031 H 392.7665 c 0.172,3.07243 0.28835,6.43725 0.37695,10.08398 0.0843,3.65589 0.13281,8.0631 0.13281,13.22461 0,4.72692 -0.0671,8.59531 -0.19531,11.57813 -0.1243,3.00112 -0.31346,5.77258 -0.56641,8.32226 5.90224,-0.29274 12.04681,-0.52666 17.25391,-0.6875 0.25966,-7.70769 -0.24579,-16.02112 0.0254,-23.91211 0.0713,-2.00959 0.18989,-3.90479 0.36719,-5.68359 l 12.66406,-0.4336 0.084,29.33789 c 6.23804,-0.29492 12.76748,0.22059 18.34571,0.68945 l 0.0859,-31.28516 12.06836,0.25781 0.77149,11.36719 c 0.18472,6.65988 0.57932,13.64461 0.084,20.1543 l 17.31055,0.54101 -0.3457,-30.46093 c -0.0568,-5.05455 -1.53566,-8.96953 -4.43946,-11.71289 -2.91199,-2.75252 -6.99725,-4.125 -12.27343,-4.125 -4.15599,0 -7.66635,0.68143 -10.52149,2.04492 -2.84647,1.36301 -5.04172,3.4079 -6.58203,6.10742 -0.9689,-2.58389 -2.67307,-4.62034 -5.12109,-6.125 -2.43501,-1.50514 -5.25742,-2.25781 -8.45704,-2.2578 -3.39911,0 -6.54678,0.72694 -9.44142,2.16992 z m -52.0957,1.35352 c 0.27896,1.09849 2.10611,9.76471 0.52148,8.82617 -4.67441,-2.70049 -11.24642,-4.94825 -19.07227,0.16797 -6.93164,4.45375 -9.32189,11.86232 -8.64062,19.48437 2.28372,1.32784 3.76172,3.53248 3.76172,6.05469 0,1.37313 -0.45535,2.6554 -1.23828,3.7539 3.04063,7.14362 8.45821,13.312 14.96875,15.92383 5.39566,2.13292 10.72537,2.23089 15.57226,0.99219 0.04,-5.14368 3.01453,-9.53464 7.39649,-10.36719 2.38635,-0.45145 4.76588,0.25864 6.74414,1.77149 3.19577,-3.46847 5.45023,-7.57774 6.39648,-11.68555 -1.23051,-1.07923 -2,-2.62928 -2,-4.39844 0,-1.68148 0.71189,-3.20425 1.8711,-4.26758 -1.46082,-4.84159 -5.47373,-9.06478 -12.84766,-11.375 0,-0.99973 7.9041,-1.69816 9.05078,-2.63671 0.0665,-0.4076 -5.61137,-1.20399 -11.34766,-1.48633 0,-0.98335 4.76954,-5.85307 4.76954,-6.83594 -3.04063,0 -4.00467,0.9293 -6.09375,2.46094 -0.47795,0 -2.32775,2.61133 -2.88086,2.61133 0,-3.9122 -3.74936,-7.69233 -6.93164,-8.99414 z m 121.84765,8.39257 c -4.58143,2.82237 -6.86523,6.39161 -6.86523,10.71094 v 0.9375 c 5.61128,-0.3785 11.29398,-0.17418 16.58593,0.38871 l 0.16602,-5.98242 c 2.68793,-0.23961 5.70874,0.1112 8.01172,0.51176 2.26205,0.4076 4.47596,0.97388 6.64453,1.68164 0.42066,2.16784 0.38869,4.1161 0.38869,6.3125 -6.68737,0.4871 -12.55264,1.1517 -17.58984,1.97461 -5.03673,0.83303 -8.41648,1.68088 -10.15625,2.53125 -1.76628,0.90241 -3.28072,2.68235 -4.54688,5.34766 -1.2652,2.66387 -1.89843,5.42726 -1.89843,8.29492 0,3.63807 1.29649,6.49786 3.88086,8.55273 2.594,2.07125 6.16235,3.10547 10.71679,3.10547 3.27575,0 6.44929,-0.4771 9.53907,-1.42383 3.08976,-0.9477 5.88228,-2.28529 8.38281,-4.03711 l 2.26953,4.88672 c 2.83249,-0.49529 5.06006,-0.85906 6.69336,-1.08984 3.37013,-0.57877 6.16688,-0.19074 9.35156,0.0527 -0.85904,-4.3728 -1.42861,-7.7631 -1.71094,-10.15234 -0.8803,-6.94164 -0.0107,-12.82578 -0.002,-19.53711 0,-5.69197 -1.90382,-9.9944 -5.71484,-12.91602 -3.80188,-2.92163 -9.4172,-4.38281 -16.83595,-4.38283 -6.95766,-3e-5 -12.72914,1.40808 -17.31056,4.23239 z m 159.66992,2.32813 c -7.44041,0 -13.40634,2.28363 -17.87695,6.85156 -4.47928,4.55926 -6.71484,10.63225 -6.71484,18.21094 0,7.23951 2.30999,12.98466 6.94922,17.25195 4.62912,4.26729 10.92885,6.39063 18.88671,6.39063 6.27591,0 11.38832,-1.44033 15.35352,-4.33594 3.9652,-2.9038 6.35154,-6.91479 7.14844,-12.04883 l -17.04883,0.57422 -0.51758,4.69141 -13.99609,-0.20313 c -0.5417,-2.96626 -0.81883,-5.9324 -0.82422,-8.72851 3.83801,-0.31944 6.99429,-0.55805 9.47266,-0.69922 7.88137,-0.40397 15.75487,-0.22071 23.80859,-0.22071 v -1.60351 c 0,-8.04603 -2.21405,-14.41896 -6.6543,-19.10156 -4.43447,-4.68309 -10.42595,-7.0293 -17.98633,-7.0293 z m 7.30664,10.6582 0.80664,8.94141 h -13.83203 v -8.67578 z m -146.44917,19.93555 -12.22852,0.89453 -0.11523,-7.95117 c 2.15942,-0.66392 4.31556,-1.18627 6.46679,-1.56641 2.15123,-0.38977 4.30798,-0.64607 6.47655,-0.79687 0.14457,3.2657 -0.18945,6.53212 -0.59959,9.41992 z"
       sodipodi:nodetypes="cccccccccccccccccccccccccccccccccccccccccccccccccccccccccccccccccccccccccccccccccccccccccccccccccccccccccccccccccccccccccccccccccccccccccccccccccccccccccccccccccccccccccccccccccccccccccccccccccccccccccccccccccccccccccccccccccccccccccccccccccccccccccccccccccccccccccccccccccccccccccccccccccccccccccccccccccc" /><path
       fill="#507a3d"
       d="m 592.5065,547.93975 c -0.16863,-1.7258 0.6909,-3.20396 0.76124,-4.8864 0.10166,-2.37286 -1.73929,-4.28511 -4.43495,-4.25861 -2.82864,0.0275 -3.16012,3.16975 -2.42104,5.12585 0.8629,2.31938 2.96499,3.93967 3.08544,6.47152 0.0303,0.62007 0.0564,2.23988 -0.89952,2.36322 -0.79208,0.11515 -1.469,-1.1409 -1.70316,-1.65594 -0.9607,-1.99947 -1.12933,-4.92928 -4.20995,-5.08924 -2.71687,-0.1243 -3.61638,2.7795 -2.60172,4.68212 1.07104,2.03704 3.73539,2.43453 5.69197,3.55085 0.84026,0.46783 1.35819,1.23871 0.53143,2.00958 -0.83689,0.78726 -1.87324,0.78726 -2.99727,0.78726 -2.20809,-0.01 -5.15621,1.125 -4.24465,3.63806 0.44229,1.22184 1.78362,1.78844 3.12495,1.82409 1.26568,0.026 2.21723,-0.80508 2.91729,-1.70894 0.72944,-0.93035 1.34566,-2.4432 2.32757,-3.15096 0.7569,-0.55792 1.72628,0.0265 2.03222,0.74342 0.49963,1.18522 -0.0405,2.72698 -0.23512,3.9122 -0.19464,1.22184 -0.46927,2.90332 0.0226,4.10781 0.5796,1.38951 1.79229,2.30156 3.46558,2.17725 1.49983,-0.10599 2.85032,-1.31049 3.10615,-2.65567 0.34593,-1.7788 -0.70776,-3.09748 -1.07056,-4.76258 -0.1773,-0.86724 -0.29196,-1.9561 0.86772,-2.09775 2.03608,-0.23994 3.51906,2.22061 4.38196,3.53206 1.12404,1.69931 2.43405,2.62002 4.66092,2.6735 2.27072,0.0617 3.67323,-1.28399 3.67805,-3.34657 0.004,-1.52248 -0.92023,-2.35551 -2.24374,-3.15096 -1.68629,-1.00937 -3.66504,-1.31097 -5.54646,-1.82409 -1.18571,-0.33581 -2.36756,-0.70776 -2.48753,-1.99995 -0.16814,-1.45262 1.456,-1.96525 2.70386,-2.30155 1.83758,-0.50444 3.55904,-1.08886 4.37376,-2.77997 1.31435,-2.71783 -0.30112,-6.33855 -4.06348,-5.44433 -2.84551,0.68175 -3.47907,3.86788 -5.0242,5.75364 -0.23367,0.30209 -1.18137,1.5326 -1.97342,1.33795 -0.80988,0.0357 -1.51427,-3.01027 -1.57594,-3.57687 z"
       id="path25958"
       style="fill:#507a3d;fill-opacity:1;stroke:none;stroke-width:0.481799"
       sodipodi:nodetypes="ccccccccccccccccccccccccccccccccccc" /></g></g></svg>
